<?xml version="1.0" encoding="iso-8859-1"?>
<!-- Uploaded to: SVG Repo, www.svgrepo.com, Generator: SVG Repo Mixer Tools -->
<svg fill="color"  version="1.1" id="Layer_1" xmlns="http://www.w3.org/2000/svg" xmlns:xlink="http://www.w3.org/1999/xlink" 
	 viewBox="0 0 259.104 259.104" xml:space="preserve">
<g>
	<g>
		<g>
			<path d="M256.468,2.637c-1.907-1.907-4.575-2.855-7.25-2.593L228.027,2.14c-33.604,3.324-65.259,18.304-89.135,42.18
				l-0.365,0.365l-5.298-2.038c-23.593-9.073-50.386-3.388-68.262,14.486l-54.008,54.008c-0.096,0.091-0.188,0.184-0.279,0.279
				l-8.044,8.043c-3.515,3.515-3.515,9.213,0,12.728c3.516,3.515,9.213,3.515,12.729,0l4.051-4.051l32.714,12.582
				c0.372,0.618,0.813,1.206,1.347,1.739l3.65,3.65l-10.583,10.583c-3.49,3.49-3.51,9.129-0.071,12.649
				c-17.598,19.116-23.107,33.004-32.352,56.335c-1.229,3.099-2.53,6.384-3.942,9.889c-1.543,3.823-0.657,8.178,2.257,11.095
				c1.965,1.966,4.584,3.011,7.255,3.011c1.291,0,2.595-0.244,3.842-0.746c3.509-1.414,6.793-2.715,9.892-3.943
				c23.33-9.246,37.219-14.755,56.336-32.353c1.748,1.707,4.015,2.564,6.285,2.564c2.304,0,4.606-0.879,6.364-2.636l10.582-10.582
				l3.649,3.649c0.525,0.524,1.112,0.968,1.738,1.344l12.583,32.718l-4.051,4.051c-3.515,3.515-3.515,9.213,0,12.728
				c1.758,1.758,4.061,2.636,6.364,2.636c2.303,0,4.606-0.879,6.364-2.636l8.043-8.043c0.096-0.091,0.188-0.185,0.279-0.28
				l54.01-54.009c17.874-17.875,23.56-44.669,14.485-68.261l-2.037-5.298l0.365-0.365c23.876-23.876,38.856-55.532,42.18-89.135
				l2.096-21.191C259.325,7.204,258.374,4.543,256.468,2.637z M33.343,114.214l44.353-44.352
				c12.291-12.291,30.45-16.558,46.85-11.196l-65.453,65.452L33.343,114.214z M33.537,225.569
				c7.256-18.099,12.332-28.892,25.667-43.484l17.816,17.816C62.428,213.236,51.633,218.313,33.537,225.569z M96.044,193.469
				L65.635,163.06l4.219-4.219l30.409,30.409L96.044,193.469z M123.005,186.536L72.568,136.1l59.424-59.423l50.436,50.436
				L123.005,186.536z M189.242,181.409l-44.352,44.352l-9.904-25.751l65.451-65.451
				C205.801,150.958,201.534,169.117,189.242,181.409z M239.052,29.306c-2.915,29.473-16.054,57.237-36.996,78.179l-6.9,6.9
				L144.72,63.949l6.901-6.901c20.94-20.941,48.705-34.08,78.178-36.995l10.27-1.016L239.052,29.306z"/>
			<path d="M195.926,40.017c-6.187,0-12.003,2.409-16.378,6.784c-9.03,9.03-9.03,23.725,0,32.755
				c4.375,4.375,10.191,6.784,16.378,6.784s12.003-2.409,16.378-6.784c9.03-9.03,9.03-23.725,0-32.755
				C207.929,42.426,202.113,40.017,195.926,40.017z M199.575,66.828c-0.975,0.975-2.271,1.512-3.649,1.512
				c-1.378,0-2.675-0.537-3.649-1.512c-2.013-2.013-2.013-5.287,0-7.3c0.975-0.975,2.271-1.512,3.649-1.512
				c1.378,0,2.675,0.537,3.649,1.512C201.588,61.541,201.588,64.816,199.575,66.828z"/>
		</g>
	</g>
</g>
</svg>